Coordinates
version=1
nRows=29
nColumns=24
inDegrees=yes

Units are S.I. units (second, meters, Newtons, ...)
Angles are in degrees.

endheader
time	pelvis_tilt	pelvis_list	pelvis_rotation	pelvis_tx	pelvis_ty	pelvis_tz	hip_flexion_r	hip_adduction_r	hip_rotation_r	knee_angle_r	ankle_angle_r	subtalar_angle_r	mtp_angle_r	hip_flexion_l	hip_adduction_l	hip_rotation_l	knee_angle_l	ankle_angle_l	subtalar_angle_l	mtp_angle_l	lumbar_extension	lumbar_bending	lumbar_rotation
      3.07500000	    -12.39092014	     -2.31658634	     -5.39538216	     -1.44060016	     -0.01535604	     -0.27258050	      8.75932772	      7.58921660	      2.78242394	     -9.84456368	      4.86805609	    -11.25360117	      8.88678953	     38.30511345	     -7.37114957	     -7.24842738	    -52.14235613	     -6.55540786	     -8.92959657	     18.05631509	      4.43645490	      2.61505680	      1.90416623
      3.08000000	    -12.36088422	     -2.20741415	     -5.57427895	     -1.43361817	     -0.01594040	     -0.27231341	      8.15515089	      7.46612882	      2.95320574	     -9.61668813	      5.15242341	    -11.21051611	      8.95420983	     38.67797252	     -7.34538605	     -7.28646884	    -50.83386394	     -6.43072680	     -8.66618882	     18.19210628	      4.36892529	      2.49913764	      2.09014135
      3.08500000	    -12.32175920	     -2.10618762	     -5.75362567	     -1.42665243	     -0.01658028	     -0.27206068	      7.54078273	      7.34554718	      3.12782952	     -9.38910352	      5.45658889	    -11.14847699	      9.03933206	     39.01180369	     -7.33000392	     -7.31624210	    -49.47046909	     -6.30944777	     -8.37527718	     18.32463312	      4.28817830	      2.38947067	      2.30207336
      3.09000000	    -12.31335819	     -2.00400308	     -5.93021111	     -1.41966191	     -0.01727938	     -0.27183845	      6.96156110	      7.22137139	      3.26354720	     -9.16028889	      5.72927233	    -11.08419636	      9.11979301	     39.34367891	     -7.32041431	     -7.35105424	    -48.04494508	     -6.19084981	     -8.03727745	     18.41502877	      4.24462017	      2.28667948	      2.48880680
      3.09500000	    -12.30639990	     -1.90813409	     -6.09979545	     -1.41267443	     -0.01803575	     -0.27163308	      6.38301983	      7.09935693	      3.38683270	     -8.92936090	      6.00429600	    -11.01764936	      9.20439261	     39.64705969	     -7.31930224	     -7.38361432	    -46.56779868	     -6.07239521	     -7.67261414	     18.46649078	      4.20257674	      2.18646424	      2.68933907
      3.10000000	    -12.30370020	     -1.81277850	     -6.26514420	     -1.40569907	     -0.01882737	     -0.27144821	      5.81309040	      6.97362279	      3.49392286	     -8.70243478	      6.26722348	    -10.94527274	      9.29340484	     39.92050067	     -7.32091605	     -7.41257234	    -45.03418561	     -5.96591502	     -7.27620673	     18.46910705	      4.16195831	      2.08552709	      2.89455892
      3.10500000	    -12.37902218	     -1.72613233	     -6.38906901	     -1.39871225	     -0.01974707	     -0.27132214	      5.33241617	      6.85983753	      3.55609087	     -8.48322978	      6.49617236	    -10.91609368	      9.35076360	     40.25883909	     -7.31653095	     -7.40774890	    -43.45661535	     -5.89297886	     -6.86245156	     18.43346702	      4.20773755	      2.00002976	      3.03106990
      3.11000000	    -12.32608821	     -1.62332430	     -6.58864224	     -1.39174605	     -0.02054382	     -0.27112779	      4.71456356	      6.71445639	      3.63776745	     -8.26325860	      6.77279098	    -10.77906450	      9.46424135	     40.38882602	     -7.35397143	     -7.53157779	    -41.81566969	     -5.74281888	     -6.40655976	     18.31338077	      4.10960443	      1.89429497	      3.31576006
      3.11500000	    -12.35273378	     -1.52406718	     -6.72478381	     -1.38472915	     -0.02146343	     -0.27097809	      4.17609403	      6.57403868	      3.66543800	     -8.03285487	      7.01962663	    -10.67214061	      9.56414710	     40.58908654	     -7.37209107	     -7.62847581	    -40.14252724	     -5.64434247	     -5.94390012	     18.12345423	      4.11001890	      1.78543542	      3.49975106
      3.12000000	    -12.35236313	     -1.42278590	     -6.88796151	     -1.37778215	     -0.02236040	     -0.27083294	      3.63730646	      6.42735719	      3.64161093	     -7.84472786	      7.26846045	    -10.51731794	      9.68687798	     40.71176884	     -7.39978831	     -7.73927832	    -38.42028167	     -5.51829989	     -5.48901247	     17.80097697	      4.06160549	      1.67913051	      3.74067703
      3.12500000	    -12.35387610	     -1.31536628	     -7.02124441	     -1.37083061	     -0.02327052	     -0.27069771	      3.10287639	      6.26869854	      3.54135316	     -7.65479601	      7.51833557	    -10.31328064	      9.83852934	     40.81554212	     -7.41744530	     -7.87462296	    -36.68569719	     -5.42026425	     -5.00433218	     17.25689364	      4.01889313	      1.55549912	      3.96089766
      3.13000000	    -12.40335118	     -1.21891978	     -7.16358440	     -1.36381194	     -0.02428845	     -0.27055366	      2.61704653	      6.12680862	      3.44135629	     -7.47139247	      7.78025474	    -10.09417538	      9.97136571	     40.93544745	     -7.46371287	     -8.04665750	    -34.93983061	     -5.26992559	     -4.54684519	     16.76150012	      4.03900542	      1.45319442	      4.16874965
      3.13500000	    -12.39043632	     -1.11841872	     -7.19018813	     -1.35675964	     -0.02523535	     -0.27058134	      2.06368269	      5.95638155	      3.07368766	     -7.27331729	      8.04122209	     -9.76046725	     10.21678992	     40.98809670	     -7.41033851	     -8.13898089	    -33.22379459	     -5.06069694	     -4.08091936	     15.36831288	      3.99264669	      1.32443264	      4.25750994
      3.14000000	    -12.55649025	     -1.04694168	     -7.34536996	     -1.34980519	     -0.02642955	     -0.27033923	      1.73052566	      5.87192803	      2.99962169	     -7.13972979	      8.22899338	     -9.65779378	     10.27194343	     41.20638559	     -7.52418585	     -8.33297443	    -31.50634157	     -5.02786106	     -3.61958233	     15.17870503	      4.12087191	      1.24911836	      4.48138949
      3.14500000	    -12.46254517	     -0.93148581	     -7.43436377	     -1.34275149	     -0.02729163	     -0.27027839	      1.11824039	      5.67511808	      2.53742030	     -6.99266844	      8.56163853	     -9.09236406	     10.47527234	     41.10562504	     -7.50107246	     -8.53937705	    -29.79908202	     -4.88978467	     -3.27145373	     14.08159083	      3.98507511	      1.09502747	      4.68153701
      3.15000000	    -12.59040071	     -0.84321800	     -7.63381898	     -1.33572546	     -0.02844270	     -0.26996262	      0.75910087	      5.56642510	      2.38578811	     -6.88647873	      8.77566953	     -8.83228788	     10.56171382	     41.24734118	     -7.63717070	     -8.86725646	    -28.16872583	     -4.86719952	     -2.89774573	     13.70242153	      4.08581878	      0.99505370	      4.99757966
      3.15500000	    -12.54234136	     -0.73873366	     -7.77439157	     -1.32870364	     -0.02939259	     -0.26983092	      0.25604439	      5.40061518	      1.90554301	     -6.84975665	      9.08388064	     -8.31649654	     10.71134050	     41.17909758	     -7.66643070	     -9.11495028	    -26.56570123	     -4.78820682	     -2.64053159	     12.92675148	      3.98531581	      0.86099116	      5.26155837
      3.16000000	    -12.57490504	     -0.63772732	     -7.92122067	     -1.32156031	     -0.03045585	     -0.26966007	     -0.17329190	      5.25162940	      1.48717575	     -6.80206223	      9.34236845	     -7.85896601	     10.85355137	     41.20842178	     -7.72051799	     -9.39899719	    -25.07045885	     -4.69162683	     -2.38017413	     12.07182149	      3.99694694	      0.73680500	      5.51690928
      3.16500000	    -12.65690404	     -0.56919744	     -7.97649148	     -1.31435493	     -0.03161090	     -0.26967371	     -0.54880853	      5.14068241	      0.97708909	     -6.75946593	      9.50223177	     -7.50593802	     11.15838199	     41.34646277	     -7.72409992	     -9.52023477	    -23.78996799	     -4.18724875	     -1.97144349	      9.29243247	      4.05831206	      0.65051018	      5.65871849
      3.17000000	    -12.71497679	     -0.47922644	     -8.15944605	     -1.30712443	     -0.03272058	     -0.26941955	     -0.92459177	      5.02192693	      0.69467708	     -6.77093015	      9.61422393	     -7.30956282	     11.20650868	     41.40722356	     -7.82998174	     -9.89890779	    -22.46398201	     -4.18803709	     -1.77749128	      9.11797468	      4.10264692	      0.54101742	      5.94652088
      3.17500000	    -12.61912739	     -0.38646789	     -8.29821789	     -1.29986030	     -0.03364714	     -0.26933697	     -1.43810941	      4.85350739	      0.16708613	     -6.83159554	      9.82811996	     -6.78801961	     11.35185528	     41.29851162	     -7.85389732	    -10.17902189	    -21.22255957	     -4.13534349	     -1.68786993	      8.52821296	      3.97946214	      0.40774763	      6.21666450
      3.18000000	    -12.67662558	     -0.26758347	     -8.51027405	     -1.29244939	     -0.03474131	     -0.26915982	     -1.77887650	      4.68347106	     -0.10477279	     -6.91575588	      9.94499714	     -6.49714902	     11.45054916	     41.35078074	     -7.92620527	    -10.56467601	    -20.09461884	     -4.06953986	     -1.62824761	      8.05813909	      4.05622587	      0.27931309	      6.56210935
      3.18500000	    -12.59705150	     -0.11864357	     -8.58385169	     -1.28491740	     -0.03569508	     -0.26923119	     -2.24006490	      4.44423548	     -0.67156291	     -7.04404710	     10.07908146	     -6.09324631	     11.71693730	     41.26776851	     -7.83967239	    -10.83656685	    -19.08279493	     -3.76213846	     -1.46060908	      6.63296182	      3.99390601	      0.09734872	      6.73006186
      3.19000000	    -12.61355386	     -0.01213769	     -8.84352391	     -1.27751821	     -0.03670343	     -0.26909102	     -2.55053025	      4.26896126	     -0.87114213	     -7.25693956	     10.10395996	     -5.88657736	     11.86130450	     41.28226578	     -7.94846957	    -11.34408160	    -18.17765952	     -3.59990621	     -1.34230416	      6.03171420	      4.01035409	     -0.00905622	      7.12657365
      3.19500000	    -12.71633886	      0.13160171	     -9.03144875	     -1.26988526	     -0.03782831	     -0.26907688	     -2.76628964	      4.06134179	     -1.05713655	     -7.48864328	     10.09490671	     -5.79313481	     11.91095754	     41.38115987	     -7.96539528	    -11.77024881	    -17.32712898	     -3.54854113	     -1.38767785	      5.81272123	      4.16232885	     -0.14093785	      7.42157060
      3.20000000	    -12.66422755	      0.29890558	     -9.25872348	     -1.26218614	     -0.03872502	     -0.26907068	     -3.12689706	      3.77710544	     -1.27861226	     -7.75347961	     10.12715929	     -5.44952588	     12.05405498	     41.27737163	     -7.96609312	    -12.30285012	    -16.55150195	     -3.36694027	     -1.28890844	      5.45675080	      4.16370800	     -0.31180568	      7.79560870
      3.20500000	    -12.59942123	      0.47368816	     -9.47260323	     -1.25445719	     -0.03962389	     -0.26911757	     -3.45165299	      3.47775999	     -1.53212873	     -8.10328876	     10.13133251	     -5.19139351	     12.24494299	     41.15971754	     -7.93908322	    -12.83805040	    -15.87506133	     -3.11933435	     -1.19403582	      5.01659021	      4.14729282	     -0.49198551	      8.14193765
      3.21000000	    -12.66481939	      0.65989387	     -9.64788570	     -1.24655391	     -0.04064934	     -0.26924191	     -3.63416837	      3.18277590	     -1.67235961	     -8.47353470	     10.04531169	     -5.07587527	     12.33329572	     41.18434800	     -7.88607529	    -13.37433473	    -15.28224871	     -2.96607381	     -1.16070831	      4.81654902	      4.30169865	     -0.66120852	      8.39517393
      3.21500000	    -12.52968812	      0.84437161	     -9.88222849	     -1.23860126	     -0.04142456	     -0.26936354	     -4.01167766	      2.82634594	     -1.85267489	     -8.87203157	      9.97992248	     -4.72917377	     12.60162240	     40.94677990	     -7.84019364	    -13.98918542	    -14.76578451	     -2.57405334	     -0.92153311	      4.42933840	      4.24733985	     -0.84852926	      8.77630319
